<mxfile host="Electron" agent="Mozilla/5.0 (Macintosh; Intel Mac OS X 10_15_7) AppleWebKit/537.36 (KHTML, like Gecko) draw.io/24.7.8 Chrome/128.0.6613.36 Electron/32.0.1 Safari/537.36" version="24.7.8" pages="2">
  <diagram id="Pwir3cQQYKMJ72O6_Z4H" name="Java">
    <mxGraphModel dx="1266" dy="674" grid="1" gridSize="10" guides="1" tooltips="1" connect="1" arrows="1" fold="1" page="1" pageScale="1" pageWidth="850" pageHeight="1100" math="0" shadow="0">
      <root>
        <mxCell id="0" />
        <mxCell id="1" parent="0" />
        <mxCell id="Gz-oRlv-pYvS6Wq2YTIi-8" value="RELEASE BUNDLE v2" style="rounded=1;whiteSpace=wrap;html=1;verticalAlign=top;strokeWidth=2;dashed=1;dashPattern=1 4;fillColor=none;fontColor=#ffffff;strokeColor=default;" parent="1" vertex="1">
          <mxGeometry x="726" y="36" width="200" height="630" as="geometry" />
        </mxCell>
        <mxCell id="m4_6NsgPn-UCfy7wOgqw-1" value="PACKAGE" style="rounded=1;whiteSpace=wrap;html=1;verticalAlign=top;strokeWidth=2;dashed=1;dashPattern=1 4;fillColor=none;fontColor=#ffffff;strokeColor=default;" parent="1" vertex="1">
          <mxGeometry x="140" y="36" width="200" height="630" as="geometry" />
        </mxCell>
        <mxCell id="nPkTSzu8djMAMbbeOqSO-1" value="BUILD INFO" style="rounded=1;whiteSpace=wrap;html=1;verticalAlign=top;strokeWidth=2;dashed=1;dashPattern=1 4;" parent="1" vertex="1">
          <mxGeometry x="420" y="36" width="200" height="630" as="geometry" />
        </mxCell>
        <mxCell id="nPkTSzu8djMAMbbeOqSO-3" style="edgeStyle=orthogonalEdgeStyle;rounded=0;orthogonalLoop=1;jettySize=auto;html=1;entryX=0.5;entryY=0;entryDx=0;entryDy=0;strokeWidth=3;flowAnimation=1;" parent="1" source="nPkTSzu8djMAMbbeOqSO-4" target="nPkTSzu8djMAMbbeOqSO-6" edge="1">
          <mxGeometry relative="1" as="geometry" />
        </mxCell>
        <mxCell id="nPkTSzu8djMAMbbeOqSO-4" value="Collect environment&lt;div&gt;&lt;span style=&quot;font-size: 8px; font-weight: 400;&quot;&gt;jf rt bce $JOB_NAME $BUILD_ID&lt;/span&gt;&lt;/div&gt;" style="whiteSpace=wrap;html=1;dashed=0;fontStyle=1;strokeWidth=3;" parent="1" vertex="1">
          <mxGeometry x="440" y="76" width="160" height="80" as="geometry" />
        </mxCell>
        <mxCell id="nPkTSzu8djMAMbbeOqSO-5" style="edgeStyle=orthogonalEdgeStyle;rounded=0;orthogonalLoop=1;jettySize=auto;html=1;entryX=0.5;entryY=0;entryDx=0;entryDy=0;flowAnimation=1;strokeWidth=3;" parent="1" source="nPkTSzu8djMAMbbeOqSO-6" target="nPkTSzu8djMAMbbeOqSO-7" edge="1">
          <mxGeometry relative="1" as="geometry" />
        </mxCell>
        <mxCell id="nPkTSzu8djMAMbbeOqSO-6" value="Add VCS Info&lt;div&gt;&lt;span style=&quot;font-size: 8px; font-weight: 400;&quot;&gt;jf rt bag $JOB_NAME $BUILD_ID&lt;/span&gt;&lt;/div&gt;" style="whiteSpace=wrap;html=1;dashed=0;fontStyle=1;strokeWidth=3;" parent="1" vertex="1">
          <mxGeometry x="440" y="216" width="160" height="80" as="geometry" />
        </mxCell>
        <mxCell id="nPkTSzu8djMAMbbeOqSO-7" value="Build Publish&lt;div&gt;&lt;span style=&quot;font-size: 8px; font-weight: 400;&quot;&gt;jf rt bp $JOB_NAME $BUILD_ID&amp;nbsp;&lt;/span&gt;&lt;span style=&quot;font-size: 8px; font-weight: 400; background-color: initial;&quot;&gt;--detailed-summary=true&lt;/span&gt;&lt;/div&gt;" style="whiteSpace=wrap;html=1;dashed=0;fontStyle=1;strokeWidth=3;" parent="1" vertex="1">
          <mxGeometry x="440" y="356" width="160" height="80" as="geometry" />
        </mxCell>
        <mxCell id="nPkTSzu8djMAMbbeOqSO-8" style="edgeStyle=orthogonalEdgeStyle;rounded=0;orthogonalLoop=1;jettySize=auto;html=1;entryX=-0.006;entryY=0.413;entryDx=0;entryDy=0;entryPerimeter=0;strokeWidth=3;flowAnimation=1;exitX=0.25;exitY=1;exitDx=0;exitDy=0;" parent="1" target="nPkTSzu8djMAMbbeOqSO-4" edge="1">
          <mxGeometry relative="1" as="geometry">
            <mxPoint x="200" y="566" as="sourcePoint" />
            <Array as="points">
              <mxPoint x="200" y="646" />
              <mxPoint x="380" y="646" />
              <mxPoint x="380" y="109" />
            </Array>
          </mxGeometry>
        </mxCell>
        <mxCell id="m4_6NsgPn-UCfy7wOgqw-2" value="" style="edgeStyle=orthogonalEdgeStyle;rounded=0;orthogonalLoop=1;jettySize=auto;html=1;flowAnimation=1;strokeWidth=3;noEdgeStyle=1;orthogonal=1;exitX=1;exitY=0.5;exitDx=0;exitDy=0;exitPerimeter=0;" parent="1" source="m4_6NsgPn-UCfy7wOgqw-3" target="m4_6NsgPn-UCfy7wOgqw-5" edge="1">
          <mxGeometry relative="1" as="geometry">
            <Array as="points">
              <mxPoint x="160" y="116" />
            </Array>
          </mxGeometry>
        </mxCell>
        <mxCell id="m4_6NsgPn-UCfy7wOgqw-3" value="Start Pipeline" style="html=1;dashed=0;whiteSpace=wrap;shape=mxgraph.dfd.start" parent="1" vertex="1">
          <mxGeometry y="101" width="80" height="30" as="geometry" />
        </mxCell>
        <mxCell id="m4_6NsgPn-UCfy7wOgqw-4" value="" style="edgeStyle=orthogonalEdgeStyle;rounded=0;orthogonalLoop=1;jettySize=auto;html=1;strokeWidth=3;flowAnimation=1;" parent="1" source="m4_6NsgPn-UCfy7wOgqw-5" target="m4_6NsgPn-UCfy7wOgqw-6" edge="1">
          <mxGeometry relative="1" as="geometry" />
        </mxCell>
        <mxCell id="m4_6NsgPn-UCfy7wOgqw-5" value="Clone VCS&lt;div&gt;&lt;span style=&quot;font-size: 8px; font-weight: 400;&quot;&gt;git clone&amp;nbsp;&lt;/span&gt;&lt;span style=&quot;background-color: initial; font-size: 8px; font-weight: 400;&quot;&gt;git@github.com&lt;/span&gt;&lt;/div&gt;" style="whiteSpace=wrap;html=1;dashed=0;fontStyle=1;strokeWidth=3;" parent="1" vertex="1">
          <mxGeometry x="160" y="76" width="160" height="80" as="geometry" />
        </mxCell>
        <mxCell id="m4_6NsgPn-UCfy7wOgqw-6" value="&lt;b&gt;set env variables&lt;/b&gt;&lt;div&gt;&lt;font style=&quot;font-size: 8px;&quot;&gt;export PACKAGE=&#39;WEBAPP&#39;&lt;/font&gt;&lt;/div&gt;" style="whiteSpace=wrap;html=1;dashed=0;strokeWidth=3;" parent="1" vertex="1">
          <mxGeometry x="160" y="206" width="160" height="80" as="geometry" />
        </mxCell>
        <mxCell id="m4_6NsgPn-UCfy7wOgqw-7" value="Create Build&lt;div&gt;&lt;span style=&quot;font-size: 8px; font-weight: 400;&quot;&gt;jf mvn clean install --build-name=$JOB_NAME --build-number=$BUILD_ID --detailed-summary=true&lt;/span&gt;&lt;/div&gt;" style="whiteSpace=wrap;html=1;dashed=0;fontStyle=1;strokeWidth=3;" parent="1" vertex="1">
          <mxGeometry x="160" y="466" width="160" height="100" as="geometry" />
        </mxCell>
        <mxCell id="m4_6NsgPn-UCfy7wOgqw-8" style="edgeStyle=orthogonalEdgeStyle;rounded=0;orthogonalLoop=1;jettySize=auto;html=1;entryX=0.433;entryY=0.017;entryDx=0;entryDy=0;entryPerimeter=0;flowAnimation=1;strokeWidth=3;" parent="1" source="m4_6NsgPn-UCfy7wOgqw-6" target="m4_6NsgPn-UCfy7wOgqw-7" edge="1">
          <mxGeometry relative="1" as="geometry" />
        </mxCell>
        <mxCell id="Gz-oRlv-pYvS6Wq2YTIi-2" value="" style="edgeStyle=orthogonalEdgeStyle;rounded=0;orthogonalLoop=1;jettySize=auto;html=1;strokeWidth=3;flowAnimation=1;" parent="1" source="cn4WToRf7t7_91YbMhjH-2" target="Gz-oRlv-pYvS6Wq2YTIi-1" edge="1">
          <mxGeometry relative="1" as="geometry" />
        </mxCell>
        <mxCell id="cn4WToRf7t7_91YbMhjH-2" value="Create Spec&lt;div&gt;&lt;span style=&quot;font-size: 8px; font-weight: 400;&quot;&gt;export&amp;nbsp;&lt;/span&gt;&lt;span style=&quot;font-size: 8px; font-weight: 400; background-color: initial;&quot;&gt;SPEC_FILE =&amp;nbsp;&lt;/span&gt;&lt;span style=&quot;font-size: 8px; font-weight: 400; background-color: initial;&quot;&gt;{&quot;files&quot;:[{&quot;build&quot;: &quot;JOB_NAME/BUILD_ID&quot;} ] }&lt;/span&gt;&lt;/div&gt;" style="whiteSpace=wrap;html=1;dashed=0;fontStyle=1;strokeWidth=3;" parent="1" vertex="1">
          <mxGeometry x="736" y="76" width="180" height="70" as="geometry" />
        </mxCell>
        <mxCell id="Gz-oRlv-pYvS6Wq2YTIi-4" value="" style="edgeStyle=orthogonalEdgeStyle;rounded=0;orthogonalLoop=1;jettySize=auto;html=1;strokeWidth=3;flowAnimation=1;" parent="1" source="Gz-oRlv-pYvS6Wq2YTIi-1" target="Gz-oRlv-pYvS6Wq2YTIi-3" edge="1">
          <mxGeometry relative="1" as="geometry" />
        </mxCell>
        <mxCell id="Gz-oRlv-pYvS6Wq2YTIi-1" value="Create RBv2 &lt;span style=&quot;font-weight: normal;&quot;&gt;(state: NEW)&lt;/span&gt;&lt;div&gt;&lt;span style=&quot;font-size: 8px; font-weight: 400;&quot;&gt;jf rbc $JOB_NAME $BUIILD_ID --sync=true --access-token=$JF_ACCESS_TKN --url=$JF_URL --signing-key=$SIGN_KEY --spec=$SPEC_FILE&lt;/span&gt;&lt;/div&gt;" style="whiteSpace=wrap;html=1;dashed=0;fontStyle=1;strokeWidth=3;" parent="1" vertex="1">
          <mxGeometry x="736" y="226" width="180" height="70" as="geometry" />
        </mxCell>
        <mxCell id="Gz-oRlv-pYvS6Wq2YTIi-7" value="" style="edgeStyle=orthogonalEdgeStyle;rounded=0;orthogonalLoop=1;jettySize=auto;html=1;strokeWidth=3;flowAnimation=1;" parent="1" source="Gz-oRlv-pYvS6Wq2YTIi-3" target="Gz-oRlv-pYvS6Wq2YTIi-6" edge="1">
          <mxGeometry relative="1" as="geometry" />
        </mxCell>
        <mxCell id="Gz-oRlv-pYvS6Wq2YTIi-3" value="PROMOTE RBv2 &lt;span style=&quot;font-weight: normal;&quot;&gt;(state: DEV)&lt;/span&gt;&lt;div&gt;&lt;span style=&quot;font-size: 8px; font-weight: 400;&quot;&gt;jf rbp $JOB_NAME $BUIILD_ID DEV --sync=true --access-token=$JF_ACCESS_TKN --url=$JF_URL --signing-key=$SIGN_KEY&lt;/span&gt;&lt;/div&gt;" style="whiteSpace=wrap;html=1;dashed=0;fontStyle=1;strokeWidth=3;" parent="1" vertex="1">
          <mxGeometry x="736" y="356" width="180" height="70" as="geometry" />
        </mxCell>
        <mxCell id="Gz-oRlv-pYvS6Wq2YTIi-6" value="PROMOTE RBv2 &lt;span style=&quot;font-weight: normal;&quot;&gt;(state: PROD)&lt;/span&gt;&lt;div&gt;&lt;span style=&quot;font-size: 8px; font-weight: 400;&quot;&gt;jf rbp $JOB_NAME $BUIILD_ID PROD --sync=true --access-token=$JF_ACCESS_TKN --url=$JF_URL --signing-key=$SIGN_KEY&lt;/span&gt;&lt;/div&gt;" style="whiteSpace=wrap;html=1;dashed=0;fontStyle=1;strokeWidth=3;" parent="1" vertex="1">
          <mxGeometry x="736" y="481" width="180" height="70" as="geometry" />
        </mxCell>
        <mxCell id="Gz-oRlv-pYvS6Wq2YTIi-9" style="edgeStyle=orthogonalEdgeStyle;rounded=0;orthogonalLoop=1;jettySize=auto;html=1;entryX=-0.006;entryY=0.413;entryDx=0;entryDy=0;entryPerimeter=0;strokeWidth=3;flowAnimation=1;exitX=0.305;exitY=1.017;exitDx=0;exitDy=0;exitPerimeter=0;" parent="1" source="nPkTSzu8djMAMbbeOqSO-7" edge="1">
          <mxGeometry relative="1" as="geometry">
            <mxPoint x="496" y="571" as="sourcePoint" />
            <Array as="points">
              <mxPoint x="496" y="437" />
              <mxPoint x="496" y="651" />
              <mxPoint x="676" y="651" />
              <mxPoint x="676" y="114" />
            </Array>
            <mxPoint x="735" y="114" as="targetPoint" />
          </mxGeometry>
        </mxCell>
      </root>
    </mxGraphModel>
  </diagram>
  <diagram name="Docker" id="rSczbIHvMfgNdQSlICwf">
    <mxGraphModel dx="1674" dy="854" grid="1" gridSize="10" guides="1" tooltips="1" connect="1" arrows="1" fold="1" page="1" pageScale="1" pageWidth="850" pageHeight="1100" math="0" shadow="0">
      <root>
        <mxCell id="riT_6Oax7leWNN1bUSs--0" />
        <mxCell id="riT_6Oax7leWNN1bUSs--1" parent="riT_6Oax7leWNN1bUSs--0" />
        <mxCell id="riT_6Oax7leWNN1bUSs--2" value="RELEASE BUNDLE v2" style="rounded=1;whiteSpace=wrap;html=1;verticalAlign=top;strokeWidth=2;dashed=1;dashPattern=1 4;fillColor=none;fontColor=#ffffff;strokeColor=default;" vertex="1" parent="riT_6Oax7leWNN1bUSs--1">
          <mxGeometry x="906" y="36" width="200" height="630" as="geometry" />
        </mxCell>
        <mxCell id="riT_6Oax7leWNN1bUSs--3" value="PACKAGE" style="rounded=1;whiteSpace=wrap;html=1;verticalAlign=top;strokeWidth=2;dashed=1;dashPattern=1 4;fillColor=none;fontColor=#ffffff;strokeColor=default;" vertex="1" parent="riT_6Oax7leWNN1bUSs--1">
          <mxGeometry x="140" y="36" width="200" height="630" as="geometry" />
        </mxCell>
        <mxCell id="riT_6Oax7leWNN1bUSs--4" value="BUILD INFO" style="rounded=1;whiteSpace=wrap;html=1;verticalAlign=top;strokeWidth=2;dashed=1;dashPattern=1 4;" vertex="1" parent="riT_6Oax7leWNN1bUSs--1">
          <mxGeometry x="532" y="36" width="200" height="630" as="geometry" />
        </mxCell>
        <mxCell id="riT_6Oax7leWNN1bUSs--5" style="edgeStyle=orthogonalEdgeStyle;rounded=0;orthogonalLoop=1;jettySize=auto;html=1;entryX=0.5;entryY=0;entryDx=0;entryDy=0;strokeWidth=3;flowAnimation=1;" edge="1" parent="riT_6Oax7leWNN1bUSs--1" source="riT_6Oax7leWNN1bUSs--6" target="riT_6Oax7leWNN1bUSs--8">
          <mxGeometry relative="1" as="geometry" />
        </mxCell>
        <mxCell id="riT_6Oax7leWNN1bUSs--6" value="Collect environment&lt;div&gt;&lt;span style=&quot;font-size: 8px; font-weight: 400;&quot;&gt;jf rt bce $JOB_NAME $BUILD_ID&lt;/span&gt;&lt;/div&gt;" style="whiteSpace=wrap;html=1;dashed=0;fontStyle=1;strokeWidth=3;" vertex="1" parent="riT_6Oax7leWNN1bUSs--1">
          <mxGeometry x="552" y="76" width="160" height="80" as="geometry" />
        </mxCell>
        <mxCell id="riT_6Oax7leWNN1bUSs--7" style="edgeStyle=orthogonalEdgeStyle;rounded=0;orthogonalLoop=1;jettySize=auto;html=1;entryX=0.5;entryY=0;entryDx=0;entryDy=0;flowAnimation=1;strokeWidth=3;" edge="1" parent="riT_6Oax7leWNN1bUSs--1" source="riT_6Oax7leWNN1bUSs--8" target="riT_6Oax7leWNN1bUSs--9">
          <mxGeometry relative="1" as="geometry" />
        </mxCell>
        <mxCell id="riT_6Oax7leWNN1bUSs--8" value="Add VCS Info&lt;div&gt;&lt;span style=&quot;font-size: 8px; font-weight: 400;&quot;&gt;jf rt bag $JOB_NAME $BUILD_ID&lt;/span&gt;&lt;/div&gt;" style="whiteSpace=wrap;html=1;dashed=0;fontStyle=1;strokeWidth=3;" vertex="1" parent="riT_6Oax7leWNN1bUSs--1">
          <mxGeometry x="552" y="216" width="160" height="80" as="geometry" />
        </mxCell>
        <mxCell id="riT_6Oax7leWNN1bUSs--9" value="Build Publish&lt;div&gt;&lt;span style=&quot;font-size: 8px; font-weight: 400;&quot;&gt;jf rt bp $JOB_NAME $BUILD_ID&amp;nbsp;&lt;/span&gt;&lt;span style=&quot;font-size: 8px; font-weight: 400; background-color: initial;&quot;&gt;--detailed-summary=true&lt;/span&gt;&lt;/div&gt;" style="whiteSpace=wrap;html=1;dashed=0;fontStyle=1;strokeWidth=3;" vertex="1" parent="riT_6Oax7leWNN1bUSs--1">
          <mxGeometry x="552" y="356" width="160" height="80" as="geometry" />
        </mxCell>
        <mxCell id="riT_6Oax7leWNN1bUSs--10" style="edgeStyle=orthogonalEdgeStyle;rounded=0;orthogonalLoop=1;jettySize=auto;html=1;entryX=-0.006;entryY=0.413;entryDx=0;entryDy=0;entryPerimeter=0;strokeWidth=3;flowAnimation=1;exitX=0.25;exitY=1;exitDx=0;exitDy=0;" edge="1" parent="riT_6Oax7leWNN1bUSs--1" target="riT_6Oax7leWNN1bUSs--6">
          <mxGeometry relative="1" as="geometry">
            <mxPoint x="200" y="566" as="sourcePoint" />
            <Array as="points">
              <mxPoint x="200" y="646" />
              <mxPoint x="380" y="646" />
              <mxPoint x="380" y="109" />
            </Array>
          </mxGeometry>
        </mxCell>
        <mxCell id="riT_6Oax7leWNN1bUSs--11" value="" style="edgeStyle=orthogonalEdgeStyle;rounded=0;orthogonalLoop=1;jettySize=auto;html=1;flowAnimation=1;strokeWidth=3;noEdgeStyle=1;orthogonal=1;exitX=1;exitY=0.5;exitDx=0;exitDy=0;exitPerimeter=0;" edge="1" parent="riT_6Oax7leWNN1bUSs--1" source="riT_6Oax7leWNN1bUSs--12" target="riT_6Oax7leWNN1bUSs--14">
          <mxGeometry relative="1" as="geometry">
            <Array as="points">
              <mxPoint x="160" y="116" />
            </Array>
          </mxGeometry>
        </mxCell>
        <mxCell id="riT_6Oax7leWNN1bUSs--12" value="Start Pipeline" style="html=1;dashed=0;whiteSpace=wrap;shape=mxgraph.dfd.start" vertex="1" parent="riT_6Oax7leWNN1bUSs--1">
          <mxGeometry y="101" width="80" height="30" as="geometry" />
        </mxCell>
        <mxCell id="riT_6Oax7leWNN1bUSs--13" value="" style="edgeStyle=orthogonalEdgeStyle;rounded=0;orthogonalLoop=1;jettySize=auto;html=1;strokeWidth=3;flowAnimation=1;" edge="1" parent="riT_6Oax7leWNN1bUSs--1" source="riT_6Oax7leWNN1bUSs--14" target="riT_6Oax7leWNN1bUSs--15">
          <mxGeometry relative="1" as="geometry" />
        </mxCell>
        <mxCell id="riT_6Oax7leWNN1bUSs--14" value="Clone VCS&lt;div&gt;&lt;span style=&quot;font-size: 8px; font-weight: 400;&quot;&gt;git clone&amp;nbsp;&lt;/span&gt;&lt;span style=&quot;background-color: initial; font-size: 8px; font-weight: 400;&quot;&gt;git@github.com&lt;/span&gt;&lt;/div&gt;" style="whiteSpace=wrap;html=1;dashed=0;fontStyle=1;strokeWidth=3;" vertex="1" parent="riT_6Oax7leWNN1bUSs--1">
          <mxGeometry x="160" y="76" width="160" height="80" as="geometry" />
        </mxCell>
        <mxCell id="riT_6Oax7leWNN1bUSs--15" value="&lt;b&gt;set env variables&lt;/b&gt;&lt;div&gt;&lt;font style=&quot;font-size: 8px;&quot;&gt;export PACKAGE=&#39;WEBAPP&#39;&lt;/font&gt;&lt;/div&gt;" style="whiteSpace=wrap;html=1;dashed=0;strokeWidth=3;" vertex="1" parent="riT_6Oax7leWNN1bUSs--1">
          <mxGeometry x="160" y="206" width="160" height="80" as="geometry" />
        </mxCell>
        <mxCell id="riT_6Oax7leWNN1bUSs--16" value="Create Build&lt;div&gt;&lt;span style=&quot;font-size: 8px; font-weight: 400;&quot;&gt;jf mvn clean install --build-name=$JOB_NAME --build-number=$BUILD_ID --detailed-summary=true&lt;/span&gt;&lt;/div&gt;" style="whiteSpace=wrap;html=1;dashed=0;fontStyle=1;strokeWidth=3;" vertex="1" parent="riT_6Oax7leWNN1bUSs--1">
          <mxGeometry x="160" y="466" width="160" height="100" as="geometry" />
        </mxCell>
        <mxCell id="riT_6Oax7leWNN1bUSs--17" style="edgeStyle=orthogonalEdgeStyle;rounded=0;orthogonalLoop=1;jettySize=auto;html=1;entryX=0.433;entryY=0.017;entryDx=0;entryDy=0;entryPerimeter=0;flowAnimation=1;strokeWidth=3;" edge="1" parent="riT_6Oax7leWNN1bUSs--1" source="riT_6Oax7leWNN1bUSs--15" target="riT_6Oax7leWNN1bUSs--16">
          <mxGeometry relative="1" as="geometry" />
        </mxCell>
        <mxCell id="riT_6Oax7leWNN1bUSs--18" value="" style="edgeStyle=orthogonalEdgeStyle;rounded=0;orthogonalLoop=1;jettySize=auto;html=1;strokeWidth=3;flowAnimation=1;" edge="1" parent="riT_6Oax7leWNN1bUSs--1" source="riT_6Oax7leWNN1bUSs--19" target="riT_6Oax7leWNN1bUSs--21">
          <mxGeometry relative="1" as="geometry" />
        </mxCell>
        <mxCell id="riT_6Oax7leWNN1bUSs--19" value="Create Spec&lt;div&gt;&lt;span style=&quot;font-size: 8px; font-weight: 400;&quot;&gt;export&amp;nbsp;&lt;/span&gt;&lt;span style=&quot;font-size: 8px; font-weight: 400; background-color: initial;&quot;&gt;SPEC_FILE =&amp;nbsp;&lt;/span&gt;&lt;span style=&quot;font-size: 8px; font-weight: 400; background-color: initial;&quot;&gt;{&quot;files&quot;:[{&quot;build&quot;: &quot;JOB_NAME/BUILD_ID&quot;} ] }&lt;/span&gt;&lt;/div&gt;" style="whiteSpace=wrap;html=1;dashed=0;fontStyle=1;strokeWidth=3;" vertex="1" parent="riT_6Oax7leWNN1bUSs--1">
          <mxGeometry x="916" y="76" width="180" height="70" as="geometry" />
        </mxCell>
        <mxCell id="riT_6Oax7leWNN1bUSs--20" value="" style="edgeStyle=orthogonalEdgeStyle;rounded=0;orthogonalLoop=1;jettySize=auto;html=1;strokeWidth=3;flowAnimation=1;" edge="1" parent="riT_6Oax7leWNN1bUSs--1" source="riT_6Oax7leWNN1bUSs--21" target="riT_6Oax7leWNN1bUSs--23">
          <mxGeometry relative="1" as="geometry" />
        </mxCell>
        <mxCell id="riT_6Oax7leWNN1bUSs--21" value="Create RBv2 &lt;span style=&quot;font-weight: normal;&quot;&gt;(state: NEW)&lt;/span&gt;&lt;div&gt;&lt;span style=&quot;font-size: 8px; font-weight: 400;&quot;&gt;jf rbc $JOB_NAME $BUIILD_ID --sync=true --access-token=$JF_ACCESS_TKN --url=$JF_URL --signing-key=$SIGN_KEY --spec=$SPEC_FILE&lt;/span&gt;&lt;/div&gt;" style="whiteSpace=wrap;html=1;dashed=0;fontStyle=1;strokeWidth=3;" vertex="1" parent="riT_6Oax7leWNN1bUSs--1">
          <mxGeometry x="916" y="226" width="180" height="70" as="geometry" />
        </mxCell>
        <mxCell id="riT_6Oax7leWNN1bUSs--22" value="" style="edgeStyle=orthogonalEdgeStyle;rounded=0;orthogonalLoop=1;jettySize=auto;html=1;strokeWidth=3;flowAnimation=1;" edge="1" parent="riT_6Oax7leWNN1bUSs--1" source="riT_6Oax7leWNN1bUSs--23" target="riT_6Oax7leWNN1bUSs--24">
          <mxGeometry relative="1" as="geometry" />
        </mxCell>
        <mxCell id="riT_6Oax7leWNN1bUSs--23" value="PROMOTE RBv2 &lt;span style=&quot;font-weight: normal;&quot;&gt;(state: DEV)&lt;/span&gt;&lt;div&gt;&lt;span style=&quot;font-size: 8px; font-weight: 400;&quot;&gt;jf rbp $JOB_NAME $BUIILD_ID DEV --sync=true --access-token=$JF_ACCESS_TKN --url=$JF_URL --signing-key=$SIGN_KEY&lt;/span&gt;&lt;/div&gt;" style="whiteSpace=wrap;html=1;dashed=0;fontStyle=1;strokeWidth=3;" vertex="1" parent="riT_6Oax7leWNN1bUSs--1">
          <mxGeometry x="916" y="356" width="180" height="70" as="geometry" />
        </mxCell>
        <mxCell id="riT_6Oax7leWNN1bUSs--24" value="PROMOTE RBv2 &lt;span style=&quot;font-weight: normal;&quot;&gt;(state: PROD)&lt;/span&gt;&lt;div&gt;&lt;span style=&quot;font-size: 8px; font-weight: 400;&quot;&gt;jf rbp $JOB_NAME $BUIILD_ID PROD --sync=true --access-token=$JF_ACCESS_TKN --url=$JF_URL --signing-key=$SIGN_KEY&lt;/span&gt;&lt;/div&gt;" style="whiteSpace=wrap;html=1;dashed=0;fontStyle=1;strokeWidth=3;" vertex="1" parent="riT_6Oax7leWNN1bUSs--1">
          <mxGeometry x="916" y="481" width="180" height="70" as="geometry" />
        </mxCell>
        <mxCell id="riT_6Oax7leWNN1bUSs--25" style="edgeStyle=orthogonalEdgeStyle;rounded=0;orthogonalLoop=1;jettySize=auto;html=1;entryX=0.02;entryY=0.124;entryDx=0;entryDy=0;entryPerimeter=0;strokeWidth=3;flowAnimation=1;exitX=0.305;exitY=1.017;exitDx=0;exitDy=0;exitPerimeter=0;" edge="1" parent="riT_6Oax7leWNN1bUSs--1" source="riT_6Oax7leWNN1bUSs--9" target="riT_6Oax7leWNN1bUSs--2">
          <mxGeometry relative="1" as="geometry">
            <mxPoint x="608" y="571" as="sourcePoint" />
            <Array as="points">
              <mxPoint x="608" y="437" />
              <mxPoint x="608" y="651" />
              <mxPoint x="788" y="651" />
              <mxPoint x="788" y="114" />
            </Array>
            <mxPoint x="847" y="114" as="targetPoint" />
          </mxGeometry>
        </mxCell>
      </root>
    </mxGraphModel>
  </diagram>
</mxfile>
